<svg xmlns="http://www.w3.org/2000/svg" viewBox="0 0 500 500"><defs><style>.cls-1{fill:#7289da;}.cls-2{fill:#697ec9;}</style></defs><title>DONE min</title><g id="DONE_min" data-name="DONE min"><g id="eys"><path class="cls-1" d="M398.56,219.18A283.51,283.51,0,0,0,339.42,178a288.36,288.36,0,0,0-70.63-25.58l-.39,0a268.43,268.43,0,0,0-63.6.6,33.06,33.06,0,0,0-5.4.6c-11,.9-37.8,5-71.5,19.8-11.3,5.2-18.2,8.9-18.6,9.1.8-.8,27-25.2,82.8-41.3l-3.1-3.8s-43.1-.9-88.5,33.1c0,0-45.4,82.2-45.4,183.6,0,0,26.5,45.7,96.1,47.9,0,0,11.7-14.2,21.1-26.1-39.4-11.8-54.6-36.4-55.1-37.1a97.9,97.9,0,0,0,8.8,5.3,3.62,3.62,0,0,0,1.3.9c.9.6,1.9.9,2.8,1.6a179.1,179.1,0,0,0,23,10.7,260.92,260.92,0,0,0,46.3,13.5,220.31,220.31,0,0,0,81.6.3c1.9-.3,3.9-.7,5.8-1.1a211.75,211.75,0,0,0,39.9-12.4c2.8-1.1,5.7-2.2,8.6-3.5A187.23,187.23,0,0,0,362.9,339s-7.7,12.8-26.8,24.5a122.16,122.16,0,0,1-30.2,13c1.4,1.8,2.8,3.5,4.2,5.3,8.3,10.3,16.6,20.2,16.6,20.2,69.6-2.2,96.4-47.9,96.4-47.9C423.1,300.77,410.49,252.71,398.56,219.18ZM210.2,315a10,10,0,0,1-10,10h-40a10,10,0,0,1-10-10V265a10,10,0,0,1,10-10h40a10,10,0,0,1,6.7,2.6,9.88,9.88,0,0,1,3.3,7.4Zm115,0a10,10,0,0,1-10,10h-40a10,10,0,0,1-10-10V265a10,10,0,0,1,10-10h40a10,10,0,0,1,10,10Z"/><path class="cls-2" d="M386.4,294.2l-22.6-10.7a67.78,67.78,0,0,0-4-17.7l15.7-19.3a4.7,4.7,0,0,0-.3-6.1l-25.3-27.3a4.57,4.57,0,0,0-6-.6l-20.4,14.2a68.46,68.46,0,0,0-17.4-5.3l-8.9-23.3a4.57,4.57,0,0,0-5.4-2.7l-36.2,8.3a4.28,4.28,0,0,0-3.5,4.9l2.1,24.8a48.81,48.81,0,0,0-7.3,5.6,55.94,55.94,0,0,0-6.2,6.7l-24.6-4a4.69,4.69,0,0,0-5.1,3.2l-4,12.9a10,10,0,0,1,3.3,7.4v24.6l2.1,1,12.5,5.9a67.78,67.78,0,0,0,4,17.7l-15.7,19.3a4.7,4.7,0,0,0,.3,6.1l25.3,27.3a4.48,4.48,0,0,0,6,.6l20.4-14.2a67.26,67.26,0,0,0,17.4,5.3l4.3,11.3a216.35,216.35,0,0,0,39.9-12.4c2.8-1,5.6-2.2,8.6-3.5l-.6-7.2a72.38,72.38,0,0,0,7.1-5.8,55.32,55.32,0,0,0,6.2-6.7l24.6,4a4.69,4.69,0,0,0,5.1-3.2l10.9-35.5A4.69,4.69,0,0,0,386.4,294.2ZM325.2,315a10,10,0,0,1-10,10h-40a10,10,0,0,1-10-10V265a10,10,0,0,1,10-10h40a10,10,0,0,1,10,10Z"/></g><g id="Hat"><path d="M419.22,179.62c-6.8,13.11-13.86,26.36-20.66,39.56A283.51,283.51,0,0,0,339.42,178a288.36,288.36,0,0,0-70.63-25.58l-.07,0c7.2-13.5,14.4-27.11,21.6-40.6,16.1-4.5,43.2,6.79,73.6,22.1C391.22,147.62,421,170.82,419.22,179.62Z"/><path d="M270.92,135.82,285,108.63l12-4.5s41,5.4,74.9,26.69,51.5,40.91,51.5,40.91l.9,10.1-13.5,26.3,74,7.89,3.2-6.5L386,99a34.83,34.83,0,0,0-17.3-7.5c-10-1.1-142.2-18-142.2-18l-4.5,7.1Z"/><polygon class="cls-2" points="427.76 327 460.96 180.21 467.56 187.36 452.06 338.7 445.86 312.9 427.76 327"/></g></g></svg>